<svg xmlns="http://www.w3.org/2000/svg" version="1.0" width="525.000000pt" height="476.000000pt" viewBox="0 0 525.000000 476.000000" preserveAspectRatio="xMidYMid meet">

<g transform="translate(0.000000,476.000000) scale(0.100000,-0.100000)" fill="#fff" stroke="none">
<path d="M1425 4414 c-444 -79 -826 -413 -973 -850 -49 -145 -66 -250 -65 -419 1 -266 66 -479 220 -717 63 -99 237 -271 344 -341 509 -335 1168 -272 1614 154 l49 48 76 -72 c257 -247 634 -375 994 -338 526 53 950 402 1106 910 42 136 53 216 53 376 -1 420 -213 815 -568 1055 -94 64 -171 102 -295 144 -135 47 -254 66 -420 66 -232 0 -393 -39 -590 -141 -107 -56 -181 -109 -288 -205 l-73 -66 -73 70 c-175 166 -413 286 -650 328 -103 18 -355 17 -461 -2z m401 -64 c114 -20 204 -41 204 -49 0 -4 -31 -19 -69 -34 -68 -27 -70 -27 -133 -12 -81 19 -243 19 -333 0 -66 -15 -73 -14 -115 4 -25 11 -53 22 -62 25 -36 11 -16 25 55 41 161 36 334 45 453 25z m1914 -5 c165 -27 212 -45 163 -62 -10 -3 -36 -14 -59 -24 -39 -18 -45 -18 -113 -4 -93 19 -264 19 -344 0 -60 -15 -63 -15 -122 9 -97 40 -92 45 88 76 128 23 264 24 387 5z m-2484 -100 c27 -8 58 -22 68 -30 19 -14 17 -18 -52 -88 -73 -73 -133 -153 -146 -194 -4 -13 -17 -25 -29 -27 -104 -20 -145 -32 -229 -73 -54 -25 -101 -43 -105 -39 -4 4 -9 39 -11 78 l-4 70 83 82 c85 83 185 156 287 207 64 33 72 34 138 14z m961 -21 c41 -20 72 -42 70 -48 -8 -25 -52 -37 -113 -31 -62 5 -94 0 -94 -15 0 -5 18 -30 41 -56 22 -26 54 -71 71 -101 18 -33 38 -55 51 -57 101 -21 140 -33 189 -57 66 -33 78 -35 78 -13 0 8 -13 20 -30 25 -19 7 -30 18 -30 30 0 22 57 89 75 89 28 0 55 -51 54 -99 -2 -69 -13 -107 -30 -102 -8 2 -22 6 -31 8 -15 5 -18 -1 -18 -35 0 -31 6 -45 24 -60 14 -10 42 -47 62 -82 l37 -63 -36 -34 c-37 -33 -37 -37 -5 -34 9 1 19 -3 23 -9 5 -8 12 -5 21 7 12 16 15 16 24 3 18 -28 35 -125 35 -205 0 -70 -4 -88 -32 -145 -45 -90 -137 -200 -169 -200 -17 0 -287 84 -301 94 -1 1 -9 44 -17 95 -8 52 -21 101 -29 108 -14 14 -72 21 -83 11 -3 -3 2 -43 10 -88 28 -144 27 -147 -58 -227 -85 -82 -169 -141 -268 -190 -70 -34 -70 -34 -112 -18 -22 9 -78 39 -124 66 -45 27 -84 49 -86 49 -7 0 -49 -71 -45 -75 16 -14 172 -105 204 -117 l40 -16 0 -168 0 -169 -42 -23 c-54 -30 -161 -60 -238 -68 -50 -5 -72 -2 -128 20 -140 53 -312 200 -340 291 -15 51 -16 310 -1 325 6 6 40 18 75 28 70 19 80 33 59 86 -7 19 -15 26 -26 22 -8 -3 -45 -14 -81 -23 l-65 -18 -55 60 c-29 33 -72 95 -93 139 -36 69 -40 86 -40 150 0 39 7 100 15 136 30 126 134 300 181 300 12 0 13 -9 8 -50 -6 -46 -5 -50 18 -61 20 -9 32 -7 64 10 21 11 51 25 67 32 15 6 27 15 27 21 0 15 72 5 80 -12 4 -8 15 -31 26 -50 10 -19 21 -51 24 -70 l7 -35 11 28 c6 15 16 27 22 27 6 0 1 13 -10 28 -28 37 -39 102 -17 102 21 0 74 -66 94 -118 15 -39 32 -50 40 -25 3 9 -15 36 -126 186 -32 43 -38 47 -78 47 -33 0 -43 4 -43 16 0 14 9 16 53 11 41 -4 59 -1 84 15 27 16 31 22 21 37 -16 26 16 83 45 79 15 -2 21 -9 19 -21 -3 -19 14 -47 28 -47 5 0 17 16 29 35 21 36 40 47 98 58 45 9 55 -24 19 -62 -15 -15 -26 -39 -26 -54 0 -35 -33 -44 -114 -30 -34 6 -62 10 -63 9 -1 -1 135 -188 146 -199 4 -4 63 0 131 10 119 16 221 13 385 -13 29 -4 34 1 115 116 59 84 84 128 83 146 -1 19 -60 119 -89 153 -2 2 -13 -4 -23 -13 -22 -20 -41 -14 -41 13 0 26 -26 46 -42 33 -7 -5 -43 -13 -80 -17 -39 -4 -69 -12 -72 -20 -2 -7 -17 -16 -32 -19 -15 -4 -43 -20 -63 -37 -20 -16 -46 -29 -60 -29 -22 0 -23 2 -17 48 6 45 4 48 -24 64 -36 20 -102 13 -189 -22 -88 -34 -95 -22 -24 47 81 79 122 94 283 100 182 7 265 -15 351 -94 l26 -24 22 33 21 33 -36 31 -36 31 29 21 c29 21 82 39 117 41 11 1 53 -15 93 -35z m973 10 c57 -31 57 -31 21 -68 l-33 -34 39 -12 c36 -11 42 -10 76 13 101 69 377 77 503 16 70 -33 203 -188 220 -256 4 -16 -18 -54 -87 -152 -51 -72 -99 -131 -106 -131 -13 0 -127 15 -185 25 -24 4 -31 -1 -48 -35 -11 -22 -20 -43 -20 -48 0 -5 37 -12 83 -15 45 -3 102 -10 127 -17 41 -10 48 -16 79 -75 28 -52 42 -67 73 -80 81 -32 82 -23 17 108 -22 43 -36 84 -32 90 4 7 47 65 96 130 101 134 101 134 223 96 138 -43 199 -85 254 -178 49 -83 77 -170 91 -280 10 -79 9 -91 -11 -143 -23 -63 -80 -151 -135 -212 -33 -37 -37 -38 -80 -32 -42 7 -46 6 -55 -19 -16 -42 -12 -54 25 -69 44 -19 50 -42 49 -181 -1 -148 -20 -198 -112 -288 -83 -83 -135 -118 -235 -158 -76 -31 -79 -31 -160 -21 -86 11 -169 38 -225 72 l-32 20 2 166 3 166 40 17 c64 25 152 80 159 97 7 18 -4 94 -13 93 -3 0 -26 -14 -51 -30 -25 -16 -78 -45 -118 -65 l-73 -37 -84 42 c-99 49 -223 140 -290 212 -47 50 -47 51 -41 102 12 93 44 210 81 300 49 116 74 151 109 155 26 3 28 5 21 40 -9 49 -12 52 -44 52 -23 0 -39 18 -120 131 l-94 131 17 34 c20 44 21 41 -14 59 -41 21 -48 19 -71 -19 -18 -30 -28 -36 -92 -50 -40 -9 -96 -28 -126 -41 -30 -14 -55 -24 -56 -23 -24 26 -85 116 -85 126 0 18 99 112 176 167 33 24 98 65 145 90 75 41 89 45 129 39 25 -3 56 -12 70 -20z m959 -28 c94 -54 228 -154 284 -214 34 -36 49 -91 41 -152 -4 -25 -8 -48 -10 -52 -2 -3 -44 14 -92 38 -48 24 -126 54 -174 66 l-87 21 -38 64 c-20 35 -70 100 -111 144 -49 52 -71 84 -65 90 15 15 105 48 132 49 14 0 68 -24 120 -54z m-3454 -424 c6 -66 6 -68 -35 -137 -48 -83 -86 -201 -99 -307 -8 -70 -13 -81 -52 -127 -24 -27 -47 -47 -52 -44 -10 6 -2 87 24 218 18 95 66 241 104 316 33 64 86 149 95 149 4 0 11 -30 15 -68z m1986 25 c69 -109 137 -280 165 -412 21 -98 30 -235 15 -235 -6 0 -11 4 -11 9 0 4 -17 28 -39 52 -34 39 -40 53 -49 124 -6 45 -22 117 -36 161 -16 50 -24 92 -20 114 6 46 -8 69 -31 50 -17 -14 -21 -12 -44 30 -12 22 -1 150 13 150 6 0 23 -19 37 -43z m1903 -9 c103 -163 163 -347 182 -560 7 -84 -1 -97 -31 -50 -10 15 -28 38 -41 52 -17 19 -25 45 -34 110 -16 121 -34 180 -89 279 -46 83 -48 88 -43 154 2 37 8 67 13 67 5 0 24 -24 43 -52z m-1499 -70 c33 -45 75 -101 93 -125 17 -24 32 -46 32 -48 0 -3 -23 -54 -51 -113 -49 -102 -109 -299 -109 -361 0 -35 -9 -46 -49 -59 -61 -21 -61 -21 -57 81 8 183 -27 367 -101 547 -19 47 -37 91 -40 97 -8 19 118 61 187 62 34 1 40 -4 95 -81z m-2101 36 c10 -26 7 -34 -18 -44 -24 -9 -96 6 -96 21 0 9 69 38 91 38 9 1 20 -6 23 -15z m-380 -668 c28 -66 94 -164 139 -204 24 -23 25 -26 20 -125 -4 -72 0 -124 11 -177 9 -41 16 -80 16 -87 0 -15 -73 -6 -126 17 -36 15 -46 27 -82 101 -53 109 -88 214 -107 328 -16 91 -16 92 6 129 23 40 67 82 85 82 6 0 23 -29 38 -64z m2198 37 c54 -59 61 -79 54 -152 -8 -96 -49 -229 -105 -347 -48 -101 -49 -102 -97 -117 -113 -35 -127 -33 -113 16 16 60 27 202 19 262 -6 53 -5 63 13 83 11 12 24 22 28 22 4 0 22 -20 40 -45 18 -25 36 -45 41 -45 17 0 7 38 -22 76 -16 21 -30 42 -30 46 0 4 16 33 36 64 20 31 47 81 61 110 13 30 30 54 37 54 7 0 24 -12 38 -27z m1879 16 c38 -20 79 -89 79 -133 0 -86 -59 -284 -121 -408 -36 -72 -41 -77 -86 -91 -65 -21 -102 -26 -109 -16 -2 5 3 48 12 96 12 63 15 113 10 178 l-6 90 43 50 c49 57 72 93 117 183 17 34 33 62 36 62 3 0 14 -5 25 -11z m-2356 -261 c72 -23 133 -46 137 -51 9 -14 21 -117 14 -124 -11 -11 -72 21 -113 61 l-43 40 0 -36 c0 -44 -20 -64 -49 -48 -11 6 -25 19 -31 29 -14 27 -44 16 -63 -24 -9 -18 -25 -36 -36 -40 -13 -4 -21 -19 -26 -48 -4 -25 -21 -59 -41 -84 -46 -56 -43 -91 14 -200 26 -49 38 -53 54 -18 6 14 23 27 39 30 15 4 31 15 34 25 3 11 22 29 41 41 28 17 44 20 79 15 24 -4 48 -13 54 -19 26 -32 -112 -144 -250 -204 l-82 -35 -86 11 c-90 12 -148 29 -218 63 l-43 22 0 168 0 169 38 16 c109 45 251 144 342 237 63 65 42 65 235 4z m816 -12 c102 -97 192 -159 334 -231 l40 -20 3 -145 c1 -80 0 -155 -3 -168 -11 -44 -202 -112 -313 -112 -45 0 -162 44 -222 84 -59 39 -165 141 -191 183 l-21 33 45 93 c43 86 71 165 97 264 10 41 13 43 68 59 31 8 62 17 67 19 22 8 30 3 96 -59z m-2376 -448 c55 -11 65 -18 135 -88 89 -90 148 -133 248 -176 61 -26 77 -38 94 -70 11 -22 27 -47 36 -57 8 -9 13 -20 10 -23 -17 -17 -224 80 -328 154 -98 69 -293 272 -262 272 5 0 35 -5 67 -12z m1865 4 c0 -24 -139 -167 -235 -242 -94 -73 -296 -180 -340 -180 -17 0 -20 16 -5 25 6 4 21 28 35 54 20 40 32 51 72 66 87 33 166 87 256 174 78 75 96 87 141 97 68 15 76 15 76 6z m1900 -1 c0 -16 -192 -206 -250 -248 -117 -84 -320 -186 -337 -170 -3 4 5 24 19 44 13 21 27 45 31 55 3 9 49 37 103 62 106 50 158 89 246 181 49 51 65 61 110 71 71 15 78 16 78 5z m-1747 -76 c32 -36 87 -85 121 -109 56 -39 182 -106 202 -106 14 -1 84 -130 70 -130 -21 0 -133 47 -193 81 -128 72 -313 223 -313 256 0 13 39 73 48 73 3 0 32 -29 65 -65z m-945 -206 c41 -10 95 -19 119 -19 56 0 64 -19 34 -76 -35 -66 -58 -81 -136 -94 -94 -16 -293 -16 -382 -1 -63 11 -76 17 -104 49 -35 40 -63 98 -54 112 4 6 25 10 48 10 65 0 173 26 240 58 l62 30 48 -25 c27 -13 83 -33 125 -44z m1918 -4 c38 -8 85 -15 104 -15 55 0 62 -9 41 -55 -28 -63 -66 -102 -108 -110 -131 -24 -397 -21 -479 5 -31 11 -58 40 -88 98 -23 45 -15 62 29 62 61 0 182 29 246 60 l60 28 63 -29 c35 -16 94 -36 132 -44z"/>
<path d="M1072 4068 c-7 -7 -12 -19 -12 -29 0 -9 -11 -25 -25 -35 -14 -10 -25 -24 -25 -31 0 -7 -8 -17 -17 -22 -14 -8 -10 -9 17 -4 44 8 70 34 70 72 0 16 5 33 10 36 12 7 13 25 2 25 -4 0 -13 -5 -20 -12z"/>
<path d="M942 4018 c-16 -16 -15 -28 3 -28 8 0 19 9 25 20 8 15 8 20 -3 20 -7 0 -18 -5 -25 -12z"/>
<path d="M2118 3680 c-49 -66 -88 -123 -88 -128 0 -4 18 -44 39 -87 21 -44 49 -111 62 -148 16 -47 33 -75 52 -89 16 -12 27 -29 27 -43 0 -13 11 -36 23 -51 29 -34 51 -25 42 17 -4 17 -2 36 4 43 9 11 16 51 21 118 0 4 19 20 41 34 l42 26 -6 105 c-6 116 -10 110 59 88 19 -6 22 -1 32 51 20 100 20 102 -50 133 -62 28 -148 51 -191 51 -17 0 -44 -30 -109 -120z"/>
<path d="M1495 3521 c-72 -12 -95 -20 -95 -36 0 -9 14 -15 36 -17 46 -4 63 -26 46 -62 -11 -24 -16 -26 -76 -26 l-64 0 -27 -72 c-36 -99 -55 -182 -55 -249 l0 -57 70 -66 c39 -36 75 -66 80 -66 5 0 16 16 24 35 8 19 19 35 24 35 13 0 52 39 52 53 0 7 -15 17 -32 22 -44 13 -67 64 -83 180 -16 115 -1 149 49 112 20 -14 76 -147 76 -179 0 -18 4 -20 41 -14 56 9 101 33 97 53 -2 9 -23 31 -48 48 -25 17 -46 41 -48 53 -4 29 39 56 75 47 38 -9 136 -103 146 -140 5 -16 24 -50 43 -74 19 -24 34 -48 34 -53 0 -4 6 -8 14 -8 14 0 36 48 36 77 0 8 27 42 60 76 71 73 71 67 2 207 -43 87 -50 96 -87 109 -47 16 -314 24 -390 12z m129 -43 c21 -29 20 -72 0 -93 -21 -21 -38 -14 -42 16 -2 13 -8 34 -14 46 -24 48 26 75 56 31z"/>
<path d="M831 3485 c-24 -19 -47 -35 -51 -35 -16 0 -83 -145 -82 -177 2 -38 39 -107 78 -144 23 -21 33 -24 91 -21 41 2 71 -2 80 -10 8 -7 25 -17 37 -23 13 -7 22 -22 24 -42 3 -31 3 -31 40 -21 80 22 88 30 101 110 6 40 26 119 43 176 17 56 28 105 25 109 -4 3 -18 1 -31 -6 -20 -11 -29 -11 -58 4 -18 10 -40 21 -48 25 -8 4 -16 19 -18 34 -4 34 -22 42 -112 50 -75 6 -75 6 -119 -29z"/>
<path d="M1270 3464 c-11 -26 -20 -48 -20 -49 0 -4 82 -26 85 -23 5 6 35 67 35 72 0 5 -65 46 -73 46 -3 0 -15 -21 -27 -46z"/>
<path d="M2332 3098 c-21 -21 -14 -48 12 -48 26 0 36 14 28 43 -5 20 -23 22 -40 5z"/>
<path d="M1095 2905 l-60 -22 -8 -82 c-9 -77 -8 -84 21 -153 54 -129 60 -138 93 -138 82 0 155 75 185 190 6 25 13 50 15 56 4 11 -163 175 -177 173 -5 -1 -36 -11 -69 -24z"/>
<path d="M1403 2633 c-26 -26 -32 -83 -9 -83 17 0 39 51 34 82 l-3 23 -22 -22z"/>
<path d="M3004 4115 c-45 -20 -83 -74 -77 -109 5 -22 10 -26 27 -22 11 2 38 8 58 11 24 5 43 16 53 32 9 13 32 42 52 64 l35 39 -58 -1 c-33 0 -73 -7 -90 -14z"/>
<path d="M3395 4095 c-67 -28 -87 -30 -118 -14 -18 10 -25 8 -50 -22 -16 -19 -41 -51 -55 -72 -23 -35 -24 -40 -9 -48 32 -18 45 -39 73 -116 15 -43 46 -104 68 -136 l41 -57 45 5 c24 3 83 8 130 11 64 5 90 11 107 26 14 13 28 18 42 13 26 -8 65 17 91 60 20 33 53 51 100 57 26 3 28 10 16 65 -7 29 -5 34 19 43 21 8 26 16 23 37 -2 20 -10 29 -33 35 -20 5 -36 20 -50 45 -16 30 -27 39 -52 41 -37 4 -40 -3 -17 -36 14 -21 14 -26 -2 -68 -26 -68 -57 -77 -77 -22 -4 10 -29 24 -62 33 -40 12 -55 21 -55 34 0 23 27 48 68 62 18 6 32 14 32 18 0 16 -79 34 -117 27 -51 -10 -55 -10 -78 -3 -12 4 -45 -4 -80 -18z"/>
<path d="M3418 3523 c-23 -6 -23 -13 5 -53 25 -38 60 -61 130 -85 26 -9 65 -32 88 -51 22 -19 49 -34 58 -34 46 0 53 -54 16 -115 -18 -29 -25 -54 -25 -93 0 -66 24 -116 87 -177 l47 -46 75 75 75 75 -12 83 c-17 119 -60 250 -87 270 -22 16 -57 7 -83 -22 -26 -28 -28 -29 -66 -16 -33 12 -62 33 -138 102 -9 9 -24 15 -35 14 -33 -4 -42 0 -48 21 -4 13 0 27 11 40 17 19 16 19 -32 18 -27 -1 -57 -3 -66 -6z"/>
<path d="M4034 3298 c12 -41 44 -182 51 -220 l6 -38 107 -34 c107 -34 107 -34 125 -14 9 11 17 35 17 53 0 31 -4 35 -52 53 -29 11 -64 23 -78 27 -39 12 -68 44 -86 97 -20 62 -107 135 -90 76z"/>
<path d="M4000 2877 c-31 -28 -83 -74 -118 -102 -50 -41 -67 -63 -92 -118 -20 -45 -30 -83 -30 -116 0 -26 -5 -62 -11 -80 -12 -33 4 -131 22 -131 4 0 16 12 26 26 10 14 31 39 47 56 15 17 34 46 42 64 18 42 88 99 139 113 44 11 93 56 119 107 8 17 40 48 69 68 52 34 80 79 60 96 -4 3 -49 18 -99 33 -50 14 -97 29 -105 31 -8 4 -37 -16 -69 -47z"/>
<path d="M3853 2313 c-22 -8 -14 -32 12 -39 30 -8 38 -3 29 19 -6 18 -24 26 -41 20z"/>
<path d="M3028 2607 c12 -13 22 -28 22 -35 0 -12 39 -37 46 -30 2 3 -4 23 -13 46 -14 36 -20 42 -46 42 l-30 0 21 -23z"/>
<path d="M3074 2475 c3 -22 6 -48 6 -57 0 -10 7 -18 15 -18 23 0 19 63 -6 91 l-20 24 5 -40z"/>
<path d="M825 1651 c-4 -7 -9 -1190 -6 -1268 1 -10 47 -13 196 -13 l195 0 2 233 3 232 90 -3 c50 -1 113 0 141 3 l50 6 52 127 c29 70 52 130 52 134 0 4 -87 9 -192 10 l-193 3 0 135 0 135 241 3 240 2 47 123 c26 67 47 128 47 135 0 9 -103 12 -479 12 -285 0 -482 -4 -486 -9z"/>
<path d="M1947 1654 c-4 -4 -7 -295 -7 -646 l0 -638 195 0 195 0 -2 643 -3 642 -186 3 c-102 1 -188 -1 -192 -4z"/>
<path d="M2637 1653 c-4 -3 -7 -294 -7 -645 l0 -638 202 0 201 0 -5 223 c-3 122 -3 228 -1 235 3 9 42 12 146 12 l142 0 49 122 c26 67 50 128 53 135 4 10 -35 13 -191 13 -180 0 -196 1 -196 18 -1 9 -3 61 -6 116 -3 54 -3 109 0 122 l6 24 241 0 c219 0 240 1 246 18 3 9 25 67 48 127 30 77 39 112 31 117 -14 10 -950 10 -959 1z"/>
<path d="M3865 1638 c-40 -117 -383 -1072 -430 -1197 -14 -35 -23 -67 -21 -70 2 -3 88 -5 190 -3 l185 3 21 72 c12 40 23 78 25 85 3 9 60 12 238 12 l234 0 22 -85 c13 -47 28 -85 34 -85 56 -2 372 2 375 4 2 2 -17 60 -41 127 -25 68 -55 151 -66 184 -11 33 -41 116 -66 185 -72 195 -203 565 -242 678 l-35 102 -209 0 c-159 0 -211 -3 -214 -12z m215 -322 c0 -3 18 -62 39 -133 71 -233 111 -372 111 -388 0 -13 -23 -15 -160 -15 -121 0 -160 3 -160 13 0 6 11 48 24 92 13 44 40 134 60 200 20 66 44 146 53 178 9 31 20 57 25 57 4 0 8 -2 8 -4z"/>
</g>
</svg>
